<svg width="58" height="58" viewBox="0 0 58 58" fill="none" xmlns="http://www.w3.org/2000/svg">
<rect width="58" height="58" rx="29" fill="white"/>
<g clip-path="url(#clip0_361_58)">
<path d="M39.3964 19.615C37.4839 18.7525 35.4339 18.115 33.2901 17.7525C33.271 17.7488 33.2513 17.7512 33.2336 17.7592C33.2159 17.7673 33.2011 17.7807 33.1914 17.7975C32.9289 18.2587 32.6364 18.86 32.4314 19.335C30.1577 18.9953 27.8462 18.9953 25.5726 19.335C25.3443 18.8085 25.0868 18.2952 24.8014 17.7975C24.7917 17.7804 24.7771 17.7668 24.7594 17.7583C24.7418 17.7498 24.722 17.7469 24.7026 17.75C22.5601 18.1125 20.5101 18.75 18.5964 19.6137C18.5799 19.6206 18.5659 19.6324 18.5564 19.6475C14.6664 25.3662 13.6001 30.9437 14.1239 36.4512C14.1253 36.4647 14.1295 36.4778 14.1362 36.4896C14.1428 36.5014 14.1518 36.5117 14.1626 36.52C16.4331 38.173 18.9655 39.4322 21.6539 40.245C21.6726 40.2507 21.6926 40.2507 21.7114 40.2449C21.7301 40.2391 21.7467 40.2278 21.7589 40.2125C22.3374 39.4388 22.85 38.618 23.2914 37.7587C23.2975 37.747 23.301 37.734 23.3017 37.7208C23.3024 37.7076 23.3003 37.6944 23.2954 37.682C23.2905 37.6697 23.2831 37.6586 23.2735 37.6494C23.264 37.6402 23.2526 37.6331 23.2401 37.6287C22.4326 37.3246 21.6502 36.9577 20.9001 36.5312C20.8866 36.5235 20.8753 36.5126 20.8671 36.4994C20.8588 36.4863 20.854 36.4713 20.853 36.4558C20.852 36.4403 20.8549 36.4248 20.8614 36.4107C20.8679 36.3966 20.8777 36.3843 20.8901 36.375C21.0476 36.2587 21.2051 36.1375 21.3551 36.0162C21.3686 36.0053 21.3849 35.9984 21.4021 35.9962C21.4193 35.994 21.4368 35.9966 21.4526 36.0037C26.3614 38.2087 31.6776 38.2087 36.5289 36.0037C36.5447 35.9961 36.5624 35.9932 36.5799 35.9952C36.5973 35.9972 36.6139 36.004 36.6276 36.015C36.7776 36.1375 36.9339 36.2587 37.0926 36.375C37.1051 36.3841 37.1152 36.3962 37.1218 36.4102C37.1285 36.4242 37.1316 36.4396 37.1309 36.4551C37.1301 36.4706 37.1256 36.4856 37.1176 36.4989C37.1096 36.5122 37.0984 36.5233 37.0851 36.5312C36.3376 36.9612 35.5601 37.325 34.7439 37.6275C34.7313 37.632 34.7199 37.6392 34.7104 37.6485C34.7008 37.6578 34.6934 37.6691 34.6885 37.6815C34.6837 37.6939 34.6815 37.7072 34.6822 37.7205C34.6829 37.7339 34.6865 37.7469 34.6926 37.7587C35.1426 38.6175 35.6576 39.435 36.2239 40.2112C36.2356 40.2271 36.252 40.2391 36.2708 40.2453C36.2896 40.2516 36.3099 40.2519 36.3289 40.2462C39.0218 39.4358 41.5584 38.1759 43.8314 36.52C43.8425 36.5122 43.8518 36.5022 43.8587 36.4905C43.8656 36.4789 43.8699 36.4659 43.8714 36.4525C44.4964 30.085 42.8239 24.5525 39.4351 19.65C39.4268 19.634 39.4131 19.6216 39.3964 19.615ZM24.0251 33.0975C22.5476 33.0975 21.3289 31.7612 21.3289 30.1225C21.3289 28.4825 22.5239 27.1475 24.0251 27.1475C25.5376 27.1475 26.7451 28.4937 26.7214 30.1225C26.7214 31.7625 25.5264 33.0975 24.0251 33.0975ZM33.9939 33.0975C32.5151 33.0975 31.2976 31.7612 31.2976 30.1225C31.2976 28.4825 32.4914 27.1475 33.9939 27.1475C35.5064 27.1475 36.7139 28.4937 36.6901 30.1225C36.6901 31.7625 35.5076 33.0975 33.9939 33.0975Z" fill="#2D91FF"/>
</g>
<defs>
<clipPath id="clip0_361_58">
<rect width="30" height="30" fill="white" transform="translate(14 14)"/>
</clipPath>
</defs>
</svg>
