<svg width="58" height="58" viewBox="0 0 58 58" fill="none" xmlns="http://www.w3.org/2000/svg">
<rect width="58" height="58" rx="29" fill="white"/>
<path d="M28.7992 14.5334C20.5881 14.5301 13.9375 21.1774 13.9375 29.3819C13.9375 35.8698 18.0979 41.3848 23.8918 43.4102C24.6721 43.6061 24.5525 43.0516 24.5525 42.6731V40.0999C20.0469 40.6278 19.8643 37.6461 19.5621 37.1481C18.9512 36.1055 17.5068 35.8399 17.9385 35.3418C18.9645 34.8139 20.0104 35.4747 21.2223 37.2643C22.0988 38.5626 23.8088 38.3434 24.6754 38.1276C24.8646 37.3473 25.2697 36.6501 25.8275 36.1088C21.1592 35.2721 19.2135 32.4233 19.2135 29.0366C19.2135 27.393 19.7547 25.8823 20.8172 24.6637C20.1398 22.6549 20.8803 20.935 20.9799 20.6793C22.909 20.5067 24.9145 22.0606 25.0705 22.1834C26.1662 21.8879 27.418 21.7319 28.8191 21.7319C30.227 21.7319 31.482 21.8946 32.5877 22.1934C32.9629 21.9079 34.8223 20.5731 36.6152 20.7358C36.7115 20.9915 37.4353 22.6715 36.7978 24.6538C37.8736 25.8756 38.4215 27.3997 38.4215 29.0465C38.4215 32.4399 36.4625 35.292 31.7809 36.1155C32.1819 36.5098 32.5002 36.9801 32.7175 37.4989C32.9347 38.0177 33.0463 38.5746 33.0459 39.137V42.8723C33.0725 43.1711 33.0459 43.4667 33.5439 43.4667C39.4242 41.4844 43.6576 35.9295 43.6576 29.3852C43.6576 21.1774 37.0037 14.5334 28.7992 14.5334Z" fill="#2D91FF"/>
</svg>
