<svg width="310" height="310" viewBox="0 0 310 310" fill="none" xmlns="http://www.w3.org/2000/svg">
<circle cx="155" cy="155" r="155" fill="#2D91FF"/>
<path d="M155 94.3334C118.333 94.3334 87.0199 117.14 74.3333 149.333C87.0199 181.527 118.333 204.333 155 204.333C191.667 204.333 222.98 181.527 235.667 149.333C222.98 117.14 191.667 94.3334 155 94.3334ZM155 186C134.76 186 118.333 169.573 118.333 149.333C118.333 129.093 134.76 112.667 155 112.667C175.24 112.667 191.667 129.093 191.667 149.333C191.667 169.573 175.24 186 155 186ZM155 127.333C142.827 127.333 133 137.16 133 149.333C133 161.507 142.827 171.333 155 171.333C167.173 171.333 177 161.507 177 149.333C177 137.16 167.173 127.333 155 127.333Z" fill="white"/>
</svg>
