<svg width="59" height="58" viewBox="0 0 59 58" fill="none" xmlns="http://www.w3.org/2000/svg">
<rect x="0.375" width="58" height="58" rx="29" fill="white"/>
<g clip-path="url(#clip0_457_23)">
<path d="M29.184 24.6648C26.7969 24.6648 24.8489 26.6129 24.8489 29C24.8489 31.3871 26.7969 33.3352 29.184 33.3352C31.5711 33.3352 33.5191 31.3871 33.5191 29C33.5191 26.6129 31.5711 24.6648 29.184 24.6648ZM42.186 29C42.186 27.2048 42.2023 25.4258 42.1015 23.6339C42.0007 21.5525 41.5259 19.7052 40.0039 18.1832C38.4786 16.6579 36.6347 16.1863 34.5533 16.0855C32.7581 15.9847 30.9792 16.001 29.1873 16.001C27.3921 16.001 25.6132 15.9847 23.8212 16.0855C21.7399 16.1863 19.8927 16.6612 18.3707 18.1832C16.8454 19.7085 16.3738 21.5525 16.273 23.6339C16.1722 25.4291 16.1885 27.208 16.1885 29C16.1885 30.792 16.1722 32.5742 16.273 34.3661C16.3738 36.4475 16.8487 38.2948 18.3707 39.8168C19.8959 41.3421 21.7399 41.8137 23.8212 41.9145C25.6164 42.0153 27.3953 41.999 29.1873 41.999C30.9824 41.999 32.7614 42.0153 34.5533 41.9145C36.6347 41.8137 38.4819 41.3388 40.0039 39.8168C41.5291 38.2915 42.0007 36.4475 42.1015 34.3661C42.2056 32.5742 42.186 30.7952 42.186 29V29ZM29.184 35.6703C25.4928 35.6703 22.5139 32.6912 22.5139 29C22.5139 25.3088 25.4928 22.3297 29.184 22.3297C32.8752 22.3297 35.8541 25.3088 35.8541 29C35.8541 32.6912 32.8752 35.6703 29.184 35.6703ZM36.1273 23.6144C35.2655 23.6144 34.5695 22.9184 34.5695 22.0566C34.5695 21.1947 35.2655 20.4988 36.1273 20.4988C36.9891 20.4988 37.6851 21.1947 37.6851 22.0566C37.6853 22.2612 37.6452 22.4639 37.567 22.653C37.4888 22.8421 37.3741 23.014 37.2294 23.1587C37.0847 23.3034 36.9129 23.4181 36.7238 23.4963C36.5346 23.5745 36.332 23.6146 36.1273 23.6144V23.6144Z" fill="#2D91FF"/>
</g>
<defs>
<clipPath id="clip0_457_23">
<rect width="26" height="26" fill="white" transform="translate(16.1875 16)"/>
</clipPath>
</defs>
</svg>
