<svg width="58" height="58" viewBox="0 0 58 58" fill="none" xmlns="http://www.w3.org/2000/svg">
<rect width="58" height="58" rx="29" fill="white"/>
<path d="M29 13.25C20.3023 13.25 13.25 20.3023 13.25 29C13.25 37.6977 20.3023 44.75 29 44.75C37.6977 44.75 44.75 37.6977 44.75 29C44.75 20.3023 37.6977 13.25 29 13.25ZM38 22.1691L36.5656 23.5437C36.4391 23.6387 36.3793 23.7934 36.4039 23.9445V34.059C36.3793 34.2137 36.4391 34.3684 36.5656 34.4598L37.9719 35.8344V36.1402H30.9125V35.8484L32.3645 34.4387C32.5086 34.2945 32.5086 34.2523 32.5086 34.0379V25.8535L28.4656 36.1051H27.9207L23.2168 25.8535V32.7266C23.1746 33.0148 23.2766 33.3066 23.4805 33.5141L25.3719 35.8027V36.1086H20V35.8027L21.8914 33.5141C21.9911 33.4111 22.0652 33.2863 22.108 33.1495C22.1507 33.0128 22.1608 32.8679 22.1375 32.7266V24.7812C22.1621 24.5598 22.0777 24.3453 21.909 24.1941L20.2285 22.1691V21.8633H25.4492L29.4781 30.7051L33.0254 21.8703H38V22.1691Z" fill="#2D91FF"/>
</svg>
