<svg width="58" height="58" viewBox="0 0 58 58" fill="none" xmlns="http://www.w3.org/2000/svg">
<rect width="58" height="58" rx="29" fill="white"/>
<path d="M41.354 21.8661C40.397 22.3011 39.44 22.5621 38.309 22.7361C39.353 22.0401 40.223 21.0831 40.658 19.8651C39.614 20.4741 38.483 20.9091 37.3519 21.1701C36.395 20.1261 35.003 19.5171 33.524 19.5171C30.653 19.5171 28.217 21.8661 28.217 24.8241C28.217 25.2591 28.304 25.6071 28.391 26.0421C24.041 25.8681 20.126 23.6931 17.516 20.5611C17.081 21.1701 16.82 22.0401 16.82 22.9971C16.82 24.8241 17.777 26.4771 19.169 27.3471C18.299 27.3471 17.516 27.0861 16.82 26.6511V26.7381C16.82 29.2611 18.647 31.4361 21.083 31.8711C20.648 31.9581 20.213 32.0451 19.691 32.0451C19.343 32.0451 18.995 32.0451 18.734 31.9581C19.43 34.0461 21.344 35.6121 23.693 35.6121C21.866 37.0041 19.604 37.8741 17.168 37.8741C16.733 37.8741 16.298 37.8741 15.95 37.7871C18.038 39.4401 20.822 40.3101 23.78 40.3101C33.437 40.3101 38.744 32.3061 38.744 25.3461V24.6501C39.788 23.8671 40.658 22.9971 41.354 21.8661Z" fill="#2D91FF"/>
</svg>
