<svg width="58" height="58" viewBox="0 0 58 58" fill="none" xmlns="http://www.w3.org/2000/svg">
<rect width="58" height="58" rx="29" fill="white"/>
<path d="M29 13C20.164 13 13 20.164 13 29C13 37.836 20.164 45 29 45C37.836 45 45 37.836 45 29C44.9893 20.168 37.832 13.0107 29.0013 13H29ZM28.34 33.9187C28.4307 34.1893 27.64 34.9787 27.5733 35.024C27.5067 35.0693 26.04 34.2573 25.7907 34.144C25.443 33.5537 25.1745 32.9203 24.992 32.26L24.9787 32.204L24.4373 31.6853C24.4373 31.6853 23.1973 30.76 23.084 30.716C22.9707 30.672 22.7453 28.9347 22.6733 28.776C22.478 28.4994 22.2466 28.2501 21.9853 28.0347L21.9787 28.0293C21.8487 27.499 21.7806 26.9554 21.776 26.4093V26.4053C21.8333 25.8307 22.0187 25.3093 22.3027 24.856L22.2933 24.8707C22.6539 24.2604 22.758 23.5321 22.5827 22.8453L22.5867 22.864C22.4507 22.6387 21.5667 22.9707 21.5667 22.9707C21.3382 22.8447 21.095 22.7475 20.8427 22.6813L20.82 22.676L20.3627 21.8227C20.3627 21.8227 17.6373 21.628 17.6827 21.5613C20.2787 17.9187 24.4867 15.572 29.244 15.572C29.8747 15.572 30.496 15.6133 31.1053 15.6933L31.0333 15.6853H31.18C31.668 15.7213 32.1187 15.7213 32.3747 16.1747C32.4253 16.2627 33.34 17.0667 33.3173 17.0667H30.8187L30.3 17.5173L32.58 18.88C32.268 18.9653 31.6333 19.1627 31.2067 19.2987C30.9178 19.3894 30.6467 19.5292 30.4053 19.712L30.412 19.7067L29.5107 20.3827L28.672 21.5813L29.8933 22.484C29.8933 22.484 31.3147 23.5667 31.3867 23.612C31.4587 23.6573 31.7467 22.7093 31.7467 22.7093C31.7138 21.9787 31.6827 21.2471 31.6533 20.5147L32.3293 20.74L33.3213 20.6493L34.4267 21.5027C34.6173 21.8013 34.8067 22.148 34.9693 22.5107L34.9907 22.564C34.9773 22.716 34.8707 23.544 35.0627 23.5747H35.0707C35.1059 23.5744 35.1404 23.5648 35.1707 23.5467H35.1693C35.512 23.38 35.8373 23.1867 36.164 22.9933C36.3187 22.9013 36.6493 22.608 36.8373 22.608C36.756 22.9413 36.64 23.2347 36.4893 23.5067L36.4987 23.488C36.464 23.5413 35.6187 24.948 35.2587 25.5453C35.1453 25.732 35.02 25.8933 34.876 26.0373L33.7027 27.232L34.1093 27.9307L33.128 29.092C33.0461 29.1888 32.9574 29.2797 32.8627 29.364L32.86 29.3667L31.808 30.2987C31.808 30.2987 30.6587 30.5693 30.5893 30.5693C30.52 30.5693 29.664 30.772 29.664 30.772C29.664 30.772 28.04 30.6147 27.8147 31.4707C27.7645 32.3284 27.9479 33.1836 28.3453 33.9453L28.3333 33.9187H28.34ZM40.3213 29.7347C40.5267 29.6893 39.7747 30.6947 39.728 30.852C39.4817 31.1941 39.2074 31.5152 38.908 31.812L37.628 31.972C37.7308 31.3931 38.021 30.8641 38.4539 30.4664C38.8869 30.0686 39.4385 29.8242 40.024 29.7707L40.0347 29.7693C40.1747 29.756 40.28 29.744 40.32 29.7347H40.3213ZM33.0613 33.7413L32.4627 32.856C32.4147 32.784 32.7013 32.4733 32.7013 32.4733C32.7013 32.4733 34.9747 32.1387 35.1893 32.1613C35.404 32.184 35.7627 32.856 35.7627 32.856C35.7627 32.856 34.9733 33.884 34.7093 33.884C34.4453 33.884 33.0587 33.7413 33.0587 33.7413H33.0613ZM33.6667 36.8453C33.6667 36.8453 33.3933 36.96 33.12 37.096C32.8467 37.232 32.504 37.3467 32.4587 37.256C32.2793 37.0669 32.0768 36.9012 31.856 36.7627L31.8427 36.7547C31.5114 36.5146 31.1583 36.3061 30.788 36.132L30.748 36.1147C30.3955 35.9334 30.086 35.6788 29.84 35.368L29.836 35.3627C29.7773 35.2307 30.064 34.8387 30.1093 34.6333C30.1547 34.428 30.0867 33.816 30.224 33.8867C30.3613 33.9573 30.6573 33.78 30.9533 33.8867C31.2867 33.992 31.5707 34.172 31.796 34.408L31.7973 34.4093C31.9347 34.708 32.1267 34.9587 32.364 35.1587L32.3667 35.1613C32.6173 35.3213 33.0733 35.5027 33.0507 35.8013C33.028 36.1 33.3933 36.4853 33.3933 36.4853L33.6667 36.8453ZM34.112 41.112C32.8707 40.5613 32.56 39.9387 32.6547 39.82C33.0547 39.4653 33.4213 39.1067 33.7693 38.7293L33.7787 38.7187C34.0173 38.384 35.2627 36.972 35.2627 36.972L34.88 36.2067L35.9467 35.5747C36.2627 35.3853 36.6347 35.2573 37.0347 35.2173L37.0453 35.216L38.0853 35.1147C38.1476 35.1084 38.2093 35.1044 38.2707 35.1027L39.948 35.0573C39.948 35.0573 41.472 34.6627 41.24 35.0813C37.7493 41.388 34.112 41.1093 34.112 41.1093V41.112Z" fill="#2D91FF"/>
</svg>
