<svg width="58" height="58" viewBox="0 0 58 58" fill="none" xmlns="http://www.w3.org/2000/svg">
<rect width="58" height="58" rx="29" fill="white"/>
<path d="M45.4245 21.8813C45.235 21.1752 44.8632 20.5313 44.3466 20.014C43.83 19.4967 43.1865 19.1241 42.4806 18.9337C39.8824 18.2349 29.4673 18.2349 29.4673 18.2349C29.4673 18.2349 19.0521 18.2349 16.4539 18.9299C15.7478 19.1198 15.104 19.4921 14.5872 20.0095C14.0705 20.5269 13.699 21.1712 13.51 21.8776C12.8149 24.4795 12.8149 29.9064 12.8149 29.9064C12.8149 29.9064 12.8149 35.3333 13.51 37.9315C13.8929 39.3662 15.0229 40.4962 16.4539 40.8791C19.0521 41.5779 29.4673 41.5779 29.4673 41.5779C29.4673 41.5779 39.8824 41.5779 42.4806 40.8791C43.9154 40.4962 45.0417 39.3662 45.4245 37.9315C46.1196 35.3333 46.1196 29.9064 46.1196 29.9064C46.1196 29.9064 46.1196 24.4795 45.4245 21.8813ZM26.1591 34.8872V24.9255L34.7827 29.8692L26.1591 34.8872Z" fill="#2D91FF"/>
</svg>
